<?xml version="1.0" standalone="no"?>
<!DOCTYPE svg PUBLIC "-//W3C//DTD SVG 20010904//EN"
 "http://www.w3.org/TR/2001/REC-SVG-20010904/DTD/svg10.dtd">
<svg version="1.0" xmlns="http://www.w3.org/2000/svg"
 width="512.000000pt" height="512.000000pt" viewBox="0 0 512.000000 512.000000"
 preserveAspectRatio="xMidYMid meet">
<metadata>
Created by potrace 1.14, written by Peter Selinger 2001-2017
</metadata>
<g transform="translate(0.000000,512.000000) scale(0.100000,-0.100000)"
fill="#000000" stroke="none">
<path d="M0 2560 l0 -2560 2560 0 2560 0 0 2560 0 2560 -2560 0 -2560 0 0
-2560z m4263 891 c88 -23 197 -77 245 -121 l32 -29 0 -216 0 -217 -119 4
c-161 4 -160 2 -163 161 l-3 120 -40 14 c-22 8 -91 19 -153 26 -292 29 -446
-57 -498 -279 -12 -55 -15 -127 -12 -403 l3 -336 27 -57 c41 -88 74 -125 142
-158 141 -69 373 -57 499 26 l37 24 0 170 0 170 -153 0 c-205 0 -197 -6 -197
151 l0 119 348 0 c191 0 352 -4 358 -8 26 -17 34 -56 34 -156 l0 -106 -49 0
-50 0 -3 -235 -3 -234 -45 -47 c-84 -87 -197 -146 -348 -181 -110 -26 -318
-23 -427 6 -240 63 -390 208 -451 436 -17 63 -19 109 -19 450 0 423 3 449 71
590 81 170 229 282 432 326 121 26 390 21 505 -10z m-2861 -39 c42 -11 98 -32
125 -46 66 -33 136 -109 170 -181 25 -54 28 -73 31 -190 3 -111 1 -139 -16
-188 -28 -79 -80 -145 -146 -187 -30 -19 -55 -37 -56 -40 0 -4 16 -12 35 -19
51 -18 140 -105 169 -164 46 -94 56 -263 24 -397 -26 -108 -101 -206 -195
-253 -115 -59 -129 -60 -520 -65 -355 -3 -362 -3 -382 17 -21 21 -21 26 -21
740 l0 719 -56 4 c-79 7 -84 16 -84 161 l0 119 423 -5 c387 -4 428 -6 499 -25z
m1679 -1 c16 -20 19 -40 19 -137 l0 -114 -350 0 -350 0 0 -255 0 -255 275 0
276 0 25 -25 c24 -24 25 -29 22 -137 l-3 -113 -297 -3 -298 -2 0 -345 0 -345
-129 0 c-112 0 -132 3 -152 19 l-24 19 -3 721 -3 721 -49 0 c-81 0 -90 16 -90
153 0 63 3 117 7 121 4 3 254 5 556 4 l549 -3 19 -24z"/>
<path d="M920 2929 l0 -232 173 6 c197 6 249 19 296 73 37 42 44 76 39 198 -3
89 -5 97 -32 125 -49 51 -98 61 -298 61 l-178 0 0 -231z"/>
<path d="M920 2195 l0 -247 188 4 c149 3 195 8 227 21 88 39 114 91 115 225 0
194 -50 228 -357 239 l-173 6 0 -248z"/>
</g>
</svg>
